<?xml version="1.0" standalone="no"?>
<!DOCTYPE svg PUBLIC "-//W3C//DTD SVG 20010904//EN"
 "http://www.w3.org/TR/2001/REC-SVG-20010904/DTD/svg10.dtd">
<svg version="1.0" xmlns="http://www.w3.org/2000/svg"
 width="2448.000000pt" height="2448.000000pt" viewBox="0 0 2448.000000 2448.000000"
 preserveAspectRatio="xMidYMid meet">
<metadata>
Created by potrace 1.14, written by Peter Selinger 2001-2017
</metadata>
<g transform="translate(0.000000,2448.000000) scale(0.100000,-0.100000)"
fill="#000000" stroke="none">
<path d="M23651 24464 c0 -11 3 -14 6 -6 3 7 2 16 -1 19 -3 4 -6 -2 -5 -13z"/>
<path d="M11522 24459 c-9 -3 -136 -5 -282 -4 -146 1 -269 -1 -275 -4 -5 -3
-80 -6 -165 -7 -85 -1 -157 -3 -160 -4 -3 -1 -59 -4 -125 -5 -66 -1 -122 -4
-125 -5 -3 -1 -54 -4 -115 -5 -60 -1 -110 -4 -110 -5 0 -1 -47 -4 -105 -6
-101 -3 -217 -9 -385 -19 -44 -3 -114 -7 -155 -9 -41 -2 -75 -5 -75 -6 0 -1
-36 -4 -80 -6 -186 -9 -240 -12 -240 -14 0 -2 -74 -7 -190 -13 -33 -1 -64 -5
-70 -8 -5 -3 -32 -5 -60 -4 -27 1 -54 -1 -60 -5 -5 -4 -32 -6 -60 -5 -27 1
-54 -1 -60 -4 -5 -3 -30 -6 -55 -7 -25 -2 -76 -5 -115 -9 -38 -3 -92 -8 -120
-9 -27 -2 -50 -4 -50 -6 0 -1 -22 -4 -50 -6 -54 -3 -126 -10 -220 -19 -33 -4
-76 -8 -95 -10 -19 -1 -35 -4 -35 -5 0 -1 -22 -3 -50 -5 -27 -1 -50 -3 -50 -5
0 -1 -18 -4 -40 -6 -22 -2 -58 -6 -80 -8 -22 -3 -65 -8 -95 -11 -108 -11 -125
-13 -125 -15 0 -1 -20 -4 -45 -6 -110 -9 -135 -12 -140 -14 -3 -1 -18 -3 -35
-5 -16 -1 -32 -3 -35 -5 -3 -1 -21 -3 -40 -4 -19 -1 -39 -4 -45 -7 -5 -3 -23
-5 -40 -4 -16 2 -34 0 -40 -3 -5 -3 -21 -7 -35 -8 -14 -1 -47 -5 -75 -9 -27
-3 -63 -8 -80 -9 -16 -2 -30 -5 -30 -6 0 -1 -18 -4 -40 -6 -71 -8 -100 -12
-100 -14 0 -1 -13 -3 -30 -5 -16 -2 -46 -6 -65 -8 -47 -8 -130 -19 -155 -21
-11 -1 -24 -4 -30 -8 -5 -3 -19 -4 -29 -2 -11 1 -25 0 -30 -4 -6 -3 -24 -8
-41 -9 -56 -6 -90 -10 -95 -13 -5 -2 -30 -6 -95 -14 -16 -2 -30 -5 -30 -6 0
-1 -13 -3 -30 -6 -65 -8 -90 -12 -90 -14 0 -1 -16 -4 -35 -6 -53 -6 -85 -11
-85 -14 0 -1 -11 -3 -25 -5 -14 -1 -38 -5 -55 -8 -47 -9 -98 -18 -125 -22 -14
-3 -36 -7 -50 -10 -14 -3 -36 -8 -50 -10 -14 -2 -36 -7 -50 -11 -14 -3 -38 -7
-55 -9 -16 -1 -30 -3 -30 -4 0 -2 -9 -4 -20 -6 -11 -1 -33 -5 -50 -9 -16 -4
-41 -9 -55 -11 -14 -2 -36 -7 -50 -10 -14 -3 -40 -8 -59 -11 -18 -3 -43 -8
-55 -10 -11 -3 -34 -8 -51 -11 -47 -8 -60 -11 -60 -13 0 -1 -11 -3 -25 -5 -14
-2 -36 -6 -50 -10 -14 -3 -36 -8 -50 -10 -14 -2 -36 -7 -50 -10 -14 -3 -34 -8
-45 -10 -11 -2 -30 -6 -42 -9 -32 -8 -63 -15 -98 -22 -44 -9 -60 -12 -60 -14
0 -2 -29 -8 -65 -15 -14 -2 -36 -7 -50 -10 -14 -3 -32 -8 -40 -10 -8 -2 -15
-4 -15 -5 0 -1 -11 -4 -25 -5 -24 -4 -59 -11 -70 -15 -3 -1 -9 -3 -15 -5 -5
-1 -12 -3 -15 -4 -5 -3 -9 -4 -65 -16 -35 -7 -58 -13 -65 -15 -3 -1 -9 -3 -15
-5 -5 -1 -12 -3 -15 -4 -5 -3 -9 -4 -65 -16 -35 -7 -58 -13 -65 -15 -3 -1 -9
-3 -15 -5 -5 -1 -12 -3 -15 -4 -3 -2 -14 -4 -25 -6 -26 -5 -60 -13 -60 -15 0
-1 -7 -3 -15 -5 -8 -2 -25 -6 -38 -9 -12 -3 -32 -9 -45 -12 -12 -3 -29 -7 -37
-9 -8 -2 -16 -4 -17 -5 -2 -2 -7 -4 -13 -5 -5 -1 -13 -4 -17 -5 -5 -1 -12 -2
-17 -1 -4 1 -14 -4 -22 -10 -8 -6 -14 -8 -14 -4 0 4 -7 2 -15 -5 -8 -6 -19 -9
-24 -6 -5 4 -12 2 -16 -4 -4 -6 -10 -8 -15 -5 -5 3 -11 1 -15 -5 -4 -6 -11 -8
-16 -5 -5 4 -15 3 -21 -2 -7 -4 -19 -9 -26 -10 -29 -7 -47 -12 -49 -13 -2 -2
-7 -4 -13 -5 -5 -1 -12 -4 -15 -5 -3 -1 -9 -4 -15 -5 -5 -1 -12 -4 -15 -5 -3
-1 -8 -3 -12 -4 -5 -1 -35 -10 -68 -20 -33 -10 -67 -20 -75 -21 -8 -2 -16 -4
-17 -5 -2 -2 -7 -4 -13 -5 -5 -1 -12 -4 -15 -5 -3 -1 -9 -4 -15 -5 -5 -1 -12
-4 -15 -5 -3 -1 -8 -3 -12 -4 -5 -1 -26 -8 -48 -15 -62 -20 -65 -20 -70 -21
-3 0 -19 -7 -35 -15 -17 -9 -30 -13 -30 -9 0 4 -7 1 -15 -6 -8 -7 -15 -9 -15
-5 0 4 -7 2 -15 -5 -8 -7 -15 -9 -15 -5 0 4 -6 3 -12 -3 -7 -6 -15 -10 -18
-10 -7 1 -83 -23 -95 -31 -5 -3 -19 -7 -29 -8 -11 -2 -25 -8 -33 -14 -7 -6
-13 -8 -13 -4 0 4 -6 3 -12 -2 -7 -6 -31 -16 -53 -23 -22 -7 -46 -17 -52 -23
-7 -5 -13 -6 -13 -2 0 4 -7 2 -15 -5 -8 -7 -15 -9 -15 -6 0 4 -12 0 -27 -8
-28 -14 -68 -29 -68 -25 0 1 -11 -4 -25 -11 -14 -8 -27 -14 -30 -15 -3 0 -24
-8 -45 -17 -82 -35 -120 -51 -125 -52 -3 -1 -21 -9 -40 -17 -19 -9 -67 -31
-106 -48 -87 -37 -404 -198 -459 -233 -22 -13 -47 -27 -55 -31 -16 -7 -23 -11
-120 -74 -271 -177 -469 -353 -536 -479 -23 -45 -23 -107 1 -134 8 -9 15 -20
15 -24 0 -18 104 -137 172 -197 82 -73 242 -199 253 -199 3 0 34 -19 68 -42
34 -24 71 -48 82 -55 23 -14 114 -67 165 -96 52 -30 380 -197 383 -195 1 1 27
-10 57 -24 54 -25 97 -44 163 -72 17 -7 52 -22 77 -32 24 -11 47 -19 50 -20 3
0 23 -8 45 -18 22 -10 45 -19 50 -20 6 -1 20 -8 32 -14 13 -7 23 -10 23 -7 0
3 11 -2 25 -11 14 -9 25 -14 25 -11 0 3 25 -5 55 -18 30 -14 55 -22 55 -19 0
4 7 1 15 -6 8 -7 15 -9 15 -5 0 4 7 2 15 -5 8 -7 15 -10 15 -6 0 4 10 0 23 -8
12 -8 33 -17 47 -20 14 -2 59 -17 100 -31 41 -15 80 -27 85 -29 6 -1 16 -5 23
-9 6 -5 12 -5 12 -1 0 3 7 1 15 -6 8 -7 15 -10 15 -6 0 4 14 0 30 -9 16 -9 30
-13 30 -9 0 4 6 2 13 -4 7 -6 24 -13 39 -16 14 -2 36 -9 47 -16 12 -6 21 -9
21 -6 0 3 31 -6 70 -19 38 -13 70 -22 70 -19 0 2 16 -2 35 -10 19 -8 35 -13
35 -10 0 2 16 -2 35 -10 19 -8 35 -12 35 -9 0 3 7 0 15 -7 9 -7 18 -10 22 -7
3 4 12 2 20 -5 7 -6 16 -8 20 -5 3 3 18 0 33 -8 15 -8 30 -12 33 -9 3 3 19 -2
36 -11 17 -8 31 -13 31 -10 0 3 16 -1 35 -9 19 -8 35 -12 35 -9 0 3 6 0 14 -6
8 -6 18 -11 22 -10 5 1 11 0 14 -1 3 -1 12 -3 20 -5 31 -8 61 -15 82 -21 13
-3 32 -7 43 -9 11 -2 20 -4 20 -5 0 -1 7 -3 15 -5 8 -2 26 -7 40 -10 27 -7 69
-16 85 -19 6 -1 16 -5 23 -9 6 -5 16 -6 21 -2 5 3 13 0 16 -6 4 -5 13 -8 20
-5 7 2 16 2 19 -2 6 -6 21 -10 61 -17 11 -2 20 -4 20 -5 0 -2 9 -4 20 -6 26
-4 60 -12 60 -14 0 -2 16 -5 58 -13 15 -3 35 -8 45 -11 17 -5 65 -16 92 -20 8
-1 31 -6 50 -11 19 -4 44 -9 55 -11 11 -1 21 -3 23 -4 1 -2 11 -4 22 -5 11 -1
21 -3 23 -5 3 -2 35 -9 67 -15 14 -2 26 -4 28 -6 1 -1 11 -3 22 -4 11 -1 21
-3 23 -5 1 -1 11 -3 22 -5 11 -2 31 -6 45 -9 14 -4 41 -9 60 -12 19 -2 43 -7
52 -10 25 -8 60 -15 88 -19 14 -2 25 -4 25 -5 0 -2 9 -4 20 -6 65 -10 80 -13
83 -15 1 -1 11 -3 22 -4 11 -1 21 -4 23 -5 1 -1 14 -4 30 -6 15 -2 39 -6 55
-8 15 -2 27 -5 27 -6 0 -2 14 -4 30 -5 17 -2 41 -6 55 -10 14 -3 36 -8 50 -10
14 -2 40 -6 58 -9 17 -3 46 -8 62 -11 17 -3 45 -7 63 -11 59 -10 92 -15 117
-19 14 -2 43 -7 65 -10 68 -11 99 -16 130 -20 17 -2 30 -4 30 -5 0 -2 14 -4
30 -5 17 -2 30 -4 30 -5 0 -2 14 -4 30 -5 17 -2 30 -4 30 -5 0 -1 11 -3 25 -5
14 -2 45 -6 70 -10 25 -4 59 -8 75 -10 17 -2 30 -4 30 -5 0 -2 14 -4 30 -5 17
-2 30 -4 30 -5 0 -1 16 -4 35 -6 40 -4 89 -11 143 -19 113 -16 100 -22 142 63
21 43 48 97 61 122 12 25 41 81 64 125 38 76 82 154 122 220 10 17 23 41 30
55 7 14 34 58 60 97 27 40 48 75 48 77 0 6 107 163 182 267 369 514 875 1018
1382 1374 169 120 406 273 466 301 8 4 31 17 50 29 61 38 323 177 328 175 1
-1 41 17 87 40 46 23 86 40 87 39 2 -1 14 4 28 11 14 8 27 15 30 15 16 4 69
27 92 40 15 9 31 16 35 17 12 1 36 9 58 19 24 10 78 32 85 34 7 1 121 44 140
52 18 8 15 7 70 22 25 7 65 20 90 29 25 9 49 16 54 14 4 -1 14 3 22 9 8 6 14
9 14 5 0 -3 16 0 35 8 19 8 35 12 35 9 0 -3 7 0 15 7 8 7 15 9 15 5 0 -4 7 -2
15 5 8 7 15 10 15 7 0 -3 15 -1 33 4 17 6 39 12 47 14 8 2 15 4 15 5 0 2 3 2
60 15 42 9 60 13 63 15 1 2 11 4 22 5 11 1 21 4 23 5 1 1 11 4 22 6 11 1 30 5
43 8 45 12 68 17 97 22 51 8 69 11 105 19 19 4 47 9 63 11 37 5 74 11 127 19
25 4 61 9 80 11 19 2 53 5 75 8 154 18 251 26 350 29 44 1 85 5 90 8 15 8 710
-3 710 -11 0 -1 23 -4 50 -6 92 -7 150 -12 195 -19 47 -6 101 -13 160 -19 19
-2 35 -5 35 -6 0 -1 14 -3 30 -5 17 -2 44 -6 60 -10 17 -4 44 -8 60 -10 17 -2
30 -4 30 -5 0 -2 11 -4 25 -6 14 -2 39 -6 55 -9 17 -3 39 -7 50 -8 12 -2 27
-7 34 -11 7 -4 15 -5 18 -2 3 3 12 1 20 -6 7 -6 16 -8 19 -5 3 3 17 2 30 -3
14 -6 35 -12 47 -14 12 -3 33 -8 47 -11 14 -3 34 -8 45 -10 72 -16 99 -23 103
-25 1 -2 7 -4 12 -5 6 -1 11 -3 13 -4 1 -2 13 -4 26 -7 12 -2 51 -13 85 -25
33 -11 70 -23 81 -25 31 -8 38 -10 65 -21 35 -15 122 -44 141 -48 8 -2 32 -10
52 -19 20 -8 37 -12 37 -9 0 3 11 -2 25 -11 13 -9 29 -16 36 -16 6 0 40 -13
76 -30 35 -16 69 -30 74 -30 5 0 17 -4 27 -10 23 -12 96 -45 102 -45 5 -1 110
-50 220 -105 79 -39 185 -95 265 -140 33 -18 76 -42 95 -53 19 -11 47 -28 62
-38 14 -11 29 -19 32 -19 3 0 29 -16 56 -35 27 -19 52 -35 54 -35 4 0 206
-136 274 -184 98 -71 395 -310 497 -401 287 -256 606 -612 855 -955 67 -92
180 -261 180 -268 0 -3 10 -19 23 -36 13 -17 36 -53 52 -81 17 -27 35 -59 42
-70 7 -11 17 -29 23 -40 6 -11 25 -47 44 -80 62 -113 226 -442 226 -453 0 -8
15 -10 43 -8 23 2 42 5 42 6 0 1 16 4 35 6 35 3 68 8 145 19 22 4 54 8 70 9
17 2 30 5 30 6 0 1 14 3 30 5 17 1 30 3 30 5 0 1 14 3 30 5 17 1 50 6 75 10
25 4 54 8 65 9 11 1 25 4 30 7 6 4 19 5 29 3 11 -1 24 0 30 4 6 3 22 7 36 9
14 1 41 5 60 8 19 3 46 7 60 9 14 2 25 5 25 6 0 1 14 3 30 5 17 1 30 3 30 5 0
1 14 3 30 5 17 2 46 7 65 10 19 3 46 7 60 9 14 2 25 5 25 6 0 1 14 3 30 5 42
6 85 13 120 20 17 4 41 8 55 10 14 2 25 5 25 6 0 1 11 3 25 4 14 2 39 6 55 10
17 4 39 8 50 9 11 1 26 5 33 9 6 5 17 5 22 2 6 -3 16 -3 23 2 6 4 21 8 32 9
11 1 31 5 45 8 35 9 81 18 105 21 11 1 20 3 20 5 0 1 11 3 25 4 14 2 35 6 47
10 27 8 59 16 97 21 15 2 36 7 46 10 21 7 51 13 99 21 19 3 44 10 57 14 12 5
24 6 27 3 3 -3 12 -1 19 3 7 5 22 9 33 10 11 0 30 4 42 8 21 7 48 13 88 21 30
6 60 13 63 15 1 2 10 3 20 4 9 1 33 6 52 11 19 5 38 10 43 11 4 1 8 2 10 4 1
1 9 3 17 5 8 2 26 6 40 9 14 3 36 8 50 11 14 3 32 8 40 10 8 2 15 4 15 5 0 1
11 4 25 5 28 4 35 6 100 24 25 8 52 15 60 16 8 2 15 4 15 5 0 2 3 2 60 15 43
9 60 13 60 15 0 1 5 3 50 14 11 2 48 13 83 24 34 11 62 18 62 15 0 -3 7 0 15
7 8 7 15 9 15 5 0 -4 7 -2 15 5 9 7 18 10 22 7 3 -4 14 -2 25 4 18 10 30 13
87 25 13 3 48 13 78 24 29 10 53 16 53 13 0 -3 7 0 15 7 8 7 15 10 15 6 0 -4
13 0 30 9 16 8 32 15 35 15 3 0 6 0 8 1 8 2 36 9 62 14 16 3 35 11 42 17 7 6
13 7 13 3 0 -4 7 -2 15 5 8 7 15 9 15 5 0 -4 7 -2 15 5 8 7 15 10 15 6 0 -4
14 0 30 9 17 9 30 13 30 9 0 -4 7 -1 15 6 8 7 15 9 15 5 0 -4 7 -1 17 6 9 8
17 12 17 10 1 -5 72 17 114 36 18 8 41 16 50 18 10 2 36 11 58 20 21 9 46 18
54 20 8 2 29 9 45 16 17 7 32 13 35 14 25 9 48 18 64 27 10 5 26 11 35 13 9 2
34 11 56 21 22 10 42 18 45 19 8 3 43 16 70 27 14 5 25 9 25 7 0 -1 21 9 48
24 26 15 47 24 47 21 0 -3 16 4 35 16 19 12 35 19 35 16 0 -3 24 7 53 21 28
15 53 26 54 25 3 -2 215 107 338 173 39 20 77 43 86 51 8 8 20 14 26 14 5 0
73 42 150 93 309 206 509 408 518 522 4 63 -133 231 -300 366 -79 64 -300 214
-350 239 -11 5 -38 21 -60 35 -48 30 -67 40 -268 143 -86 45 -159 82 -162 81
-3 0 -31 12 -63 27 -58 27 -92 42 -159 70 -21 8 -49 21 -63 29 -14 7 -27 13
-30 13 -3 1 -18 6 -35 13 -16 7 -32 13 -35 14 -17 6 -50 19 -85 33 -21 10 -43
18 -47 18 -4 1 -10 3 -13 4 -3 1 -8 3 -12 5 -5 1 -19 6 -33 12 -14 6 -42 18
-62 26 -21 9 -38 14 -38 11 0 -3 -9 0 -21 6 -11 6 -28 13 -37 15 -9 2 -62 20
-117 40 -55 21 -107 38 -115 40 -8 2 -15 4 -15 5 0 1 -7 3 -15 5 -8 2 -39 13
-67 23 -29 11 -53 18 -53 16 0 -3 -14 3 -30 11 -17 9 -35 13 -40 10 -5 -3 -11
-1 -14 4 -3 4 -20 12 -38 16 -37 9 -47 12 -50 15 -2 1 -11 3 -20 6 -29 7 -42
11 -58 17 -8 3 -35 12 -60 18 -25 7 -47 13 -50 14 -3 1 -25 7 -50 15 -52 16
-57 17 -90 25 -34 8 -39 10 -90 25 -25 8 -49 14 -55 15 -5 0 -16 4 -22 8 -7 5
-13 6 -13 3 0 -3 -12 -1 -27 5 -27 10 -40 14 -93 25 -14 3 -32 7 -40 9 -8 2
-17 4 -20 5 -3 1 -9 2 -14 1 -4 -1 -14 4 -22 10 -8 6 -14 8 -14 4 0 -4 -7 -2
-15 5 -8 6 -19 9 -24 6 -5 -4 -12 -2 -16 3 -3 5 -13 10 -23 9 -9 0 -27 3 -39
6 -13 3 -32 8 -44 11 -11 2 -29 7 -39 10 -23 7 -59 15 -85 19 -11 2 -20 4 -20
5 0 3 -35 12 -65 16 -14 1 -27 4 -30 6 -3 1 -9 3 -15 4 -5 2 -12 4 -15 5 -3 1
-12 3 -20 5 -8 2 -26 6 -40 9 -14 3 -36 8 -50 11 -22 4 -61 12 -95 19 -5 1
-16 5 -22 9 -7 5 -17 6 -22 2 -5 -3 -12 -1 -16 4 -3 5 -13 10 -23 9 -9 0 -28
3 -42 7 -14 3 -34 8 -45 10 -11 2 -33 7 -50 10 -16 4 -41 9 -55 10 -14 2 -25
4 -25 5 0 2 -9 4 -20 5 -20 3 -52 9 -110 21 -16 4 -39 8 -50 9 -11 2 -20 4
-20 5 0 3 -28 8 -70 14 -16 2 -30 5 -30 6 0 2 -35 9 -80 16 -62 9 -80 12 -80
14 0 3 -14 5 -75 14 -19 3 -46 8 -60 11 -14 4 -38 8 -55 10 -16 2 -30 4 -30 5
0 2 -13 4 -30 5 -16 2 -30 4 -30 5 0 3 -94 19 -150 25 -16 2 -30 4 -30 5 0 2
-13 4 -30 5 -16 2 -30 4 -30 5 0 2 -38 8 -90 14 -16 2 -30 5 -30 6 0 2 -13 4
-30 5 -16 2 -30 4 -30 5 0 2 -11 4 -25 5 -14 1 -45 6 -70 10 -25 4 -58 8 -75
10 -16 2 -30 4 -30 5 0 2 -48 9 -95 14 -19 2 -35 5 -35 6 0 2 -11 4 -85 14
-19 3 -53 8 -75 11 -22 3 -56 8 -75 11 -19 2 -48 7 -65 9 -38 5 -110 14 -155
19 -19 2 -35 5 -35 6 0 1 -18 4 -40 6 -22 2 -56 6 -75 9 -19 3 -55 8 -80 9
-25 2 -45 5 -45 6 0 2 -44 7 -120 14 -22 2 -40 5 -40 6 0 2 -31 6 -115 14 -25
3 -65 7 -90 11 -25 3 -67 8 -95 11 -27 2 -68 7 -90 10 -22 2 -65 6 -95 8 -30
2 -55 5 -55 6 0 2 -36 6 -150 14 -27 2 -50 5 -50 6 0 2 -22 4 -50 5 -27 2 -50
4 -50 5 0 1 -22 4 -50 6 -135 9 -170 12 -170 14 0 2 -22 4 -50 6 -27 2 -77 5
-110 8 -33 2 -62 5 -65 6 -3 2 -27 4 -55 5 -27 1 -52 4 -55 5 -3 1 -30 4 -60
6 -30 2 -86 6 -125 9 -148 11 -223 16 -300 19 -44 2 -80 5 -80 6 0 1 -36 4
-80 5 -44 2 -82 4 -85 5 -3 2 -36 4 -75 5 -38 1 -74 4 -80 5 -10 3 -62 6 -235
14 -47 2 -85 5 -85 6 0 2 -131 8 -330 14 -60 2 -110 5 -110 6 0 1 -63 4 -140
5 -77 1 -142 4 -145 5 -3 1 -72 4 -155 5 -82 1 -152 4 -155 5 -19 9 -1931 18
-1958 9z"/>
<path d="M23652 24350 c0 -14 2 -19 5 -12 2 6 2 18 0 25 -3 6 -5 1 -5 -13z"/>
<path d="M23652 24230 c0 -14 2 -19 5 -12 2 6 2 18 0 25 -3 6 -5 1 -5 -13z"/>
<path d="M23652 24110 c0 -14 2 -19 5 -12 2 6 2 18 0 25 -3 6 -5 1 -5 -13z"/>
<path d="M23652 23990 c0 -14 2 -19 5 -12 2 6 2 18 0 25 -3 6 -5 1 -5 -13z"/>
<path d="M23652 23750 c0 -14 2 -19 5 -12 2 6 2 18 0 25 -3 6 -5 1 -5 -13z"/>
<path d="M23652 23630 c0 -14 2 -19 5 -12 2 6 2 18 0 25 -3 6 -5 1 -5 -13z"/>
<path d="M23652 23510 c0 -14 2 -19 5 -12 2 6 2 18 0 25 -3 6 -5 1 -5 -13z"/>
<path d="M23652 23390 c0 -14 2 -19 5 -12 2 6 2 18 0 25 -3 6 -5 1 -5 -13z"/>
<path d="M23652 22550 c0 -14 2 -19 5 -12 2 6 2 18 0 25 -3 6 -5 1 -5 -13z"/>
<path d="M23652 22310 c0 -14 2 -19 5 -12 2 6 2 18 0 25 -3 6 -5 1 -5 -13z"/>
<path d="M23652 22070 c0 -14 2 -19 5 -12 2 6 2 18 0 25 -3 6 -5 1 -5 -13z"/>
<path d="M12024 21921 c-3 -3 -35 -6 -72 -7 -90 -3 -286 -23 -382 -39 -19 -3
-44 -7 -55 -8 -11 -1 -24 -5 -30 -8 -5 -4 -19 -5 -29 -3 -11 1 -25 0 -30 -4
-6 -3 -22 -7 -36 -9 -24 -2 -59 -9 -70 -13 -3 -1 -9 -3 -15 -5 -5 -1 -12 -3
-15 -4 -3 -2 -14 -4 -25 -6 -20 -2 -46 -8 -95 -20 -14 -3 -29 -7 -35 -8 -5 -2
-16 -6 -23 -11 -7 -4 -16 -6 -18 -3 -3 3 -22 -2 -42 -10 -20 -8 -38 -15 -39
-14 -9 3 -64 -13 -69 -20 -3 -5 -10 -7 -15 -4 -5 4 -15 3 -21 -2 -7 -4 -15 -8
-18 -9 -3 0 -13 -4 -22 -7 -22 -9 -46 -16 -56 -18 -4 0 -15 -5 -25 -11 -10 -5
-29 -11 -41 -14 -13 -2 -45 -14 -72 -26 -27 -12 -51 -23 -54 -23 -3 -1 -22 -9
-44 -18 -21 -9 -40 -17 -42 -17 -2 0 -29 -12 -61 -27 -32 -15 -60 -27 -63 -28
-11 -1 -259 -127 -305 -155 -27 -16 -59 -34 -70 -39 -11 -5 -37 -21 -58 -35
-21 -14 -40 -26 -42 -26 -12 0 -186 -119 -310 -212 -402 -300 -766 -684 -1042
-1098 -95 -142 -112 -176 -91 -178 7 -1 40 -4 73 -7 33 -3 85 -7 115 -10 30
-3 84 -7 120 -10 98 -7 218 -16 285 -20 33 -3 94 -7 135 -10 41 -3 109 -7 150
-9 41 -2 75 -5 75 -6 0 -2 72 -6 240 -14 44 -2 82 -4 85 -6 3 -1 43 -4 90 -6
47 -2 135 -6 195 -9 61 -3 160 -7 220 -9 61 -2 112 -5 115 -6 3 -1 59 -4 125
-6 167 -5 447 -14 465 -14 8 0 24 1 35 4 11 2 25 1 30 -3 25 -15 2430 -16
2430 -1 0 1 72 4 160 6 249 6 550 18 755 29 47 3 126 7 175 9 50 2 90 5 90 6
0 1 41 4 90 5 50 1 90 4 90 5 0 1 38 4 85 6 177 8 235 12 240 14 3 1 37 4 75
5 39 1 72 3 75 5 3 1 41 4 85 6 141 7 200 11 200 14 0 1 27 4 60 6 33 2 87 6
120 8 66 6 183 16 203 18 18 2 16 8 -22 70 -208 345 -553 745 -902 1044 -151
130 -438 333 -599 425 -33 18 -73 42 -90 51 -16 10 -104 54 -195 99 -91 44
-182 90 -202 101 -21 10 -38 16 -38 12 0 -3 -6 -1 -13 5 -13 10 -216 90 -247
96 -8 2 -16 4 -17 5 -2 2 -7 4 -13 5 -5 1 -12 4 -15 5 -3 1 -9 4 -15 5 -5 1
-12 4 -15 5 -3 1 -9 4 -15 5 -5 1 -12 4 -15 5 -3 1 -9 4 -15 5 -5 1 -11 3 -12
5 -2 1 -10 3 -18 5 -8 1 -42 11 -75 21 -67 20 -81 24 -110 29 -11 2 -33 8 -48
14 -15 6 -31 10 -35 10 -4 -1 -9 0 -12 1 -3 1 -13 3 -24 5 -10 2 -41 9 -70 16
-28 7 -58 13 -66 14 -8 0 -20 3 -26 7 -5 4 -19 5 -30 4 -10 -2 -24 0 -29 5 -6
4 -20 6 -30 5 -11 -2 -24 -1 -30 3 -5 3 -21 7 -35 8 -14 1 -43 5 -65 8 -90 13
-162 20 -290 30 -95 8 -515 12 -521 6z"/>
<path d="M23652 21830 c0 -14 2 -19 5 -12 2 6 2 18 0 25 -3 6 -5 1 -5 -13z"/>
<path d="M23652 21710 c0 -14 2 -19 5 -12 2 6 2 18 0 25 -3 6 -5 1 -5 -13z"/>
<path d="M23652 21590 c0 -14 2 -19 5 -12 2 6 2 18 0 25 -3 6 -5 1 -5 -13z"/>
<path d="M23652 21470 c0 -14 2 -19 5 -12 2 6 2 18 0 25 -3 6 -5 1 -5 -13z"/>
<path d="M23652 20630 c0 -14 2 -19 5 -12 2 6 2 18 0 25 -3 6 -5 1 -5 -13z"/>
<path d="M23652 20510 c0 -14 2 -19 5 -12 2 6 2 18 0 25 -3 6 -5 1 -5 -13z"/>
<path d="M23652 20390 c0 -14 2 -19 5 -12 2 6 2 18 0 25 -3 6 -5 1 -5 -13z"/>
<path d="M23652 20270 c0 -14 2 -19 5 -12 2 6 2 18 0 25 -3 6 -5 1 -5 -13z"/>
<path d="M23651 20114 c0 -11 3 -14 6 -6 3 7 2 16 -1 19 -3 4 -6 -2 -5 -13z"/>
<path d="M23652 19910 c0 -14 2 -19 5 -12 2 6 2 18 0 25 -3 6 -5 1 -5 -13z"/>
<path d="M876 17678 c0 -1694 3 -2200 13 -2222 61 -149 416 -444 731 -609 19
-10 62 -34 95 -53 71 -39 348 -176 365 -179 3 -1 32 -14 65 -29 33 -15 77 -34
97 -41 20 -8 48 -21 62 -30 14 -10 26 -14 26 -10 0 4 7 2 15 -5 8 -7 15 -10
15 -6 0 4 10 0 23 -8 12 -8 25 -15 30 -15 4 -1 23 -8 43 -16 20 -8 39 -15 41
-15 3 0 19 -6 36 -14 36 -16 174 -66 197 -71 8 -2 16 -4 18 -5 1 -2 5 -3 10
-4 4 -1 16 -7 27 -13 11 -6 25 -12 30 -13 13 -3 22 -6 70 -21 22 -7 42 -13 45
-14 3 0 10 -3 15 -6 6 -4 24 -10 40 -14 44 -12 45 -12 50 -15 3 -1 8 -3 13 -4
4 -1 12 -4 17 -7 6 -4 24 -10 40 -14 44 -12 45 -12 50 -15 3 -1 10 -4 15 -5 6
-1 12 -4 15 -5 3 -1 8 -3 13 -4 4 -2 27 -8 52 -15 25 -7 50 -14 55 -15 6 -1
15 -4 20 -7 10 -6 60 -20 70 -19 3 0 21 -6 40 -14 20 -9 38 -15 40 -16 3 0 6
0 8 -1 1 0 10 -2 20 -5 9 -2 25 -6 35 -8 9 -3 17 -5 17 -6 0 -1 8 -3 18 -6 9
-2 25 -6 35 -8 9 -3 17 -5 17 -6 0 -1 11 -3 25 -6 14 -2 36 -9 50 -14 14 -5
36 -12 50 -14 14 -3 41 -10 60 -16 44 -14 67 -20 105 -27 17 -3 38 -9 47 -14
9 -5 21 -9 25 -8 4 1 10 0 13 -1 3 -1 12 -3 20 -5 8 -2 26 -7 40 -10 14 -4 34
-8 45 -10 34 -7 60 -13 60 -15 0 -2 34 -10 60 -15 11 -2 22 -4 25 -6 3 -1 10
-3 15 -4 6 -2 12 -4 15 -5 3 -1 16 -4 30 -7 39 -7 55 -11 55 -13 0 -2 25 -8
60 -15 l30 -5 -1 197 c0 109 3 203 7 208 4 6 6 20 5 30 -2 11 -1 25 3 30 3 6
6 18 7 28 1 9 3 19 4 22 1 3 3 8 5 13 1 4 5 15 9 24 4 9 9 22 10 30 3 19 47
107 78 154 68 106 233 246 328 279 3 1 13 5 23 8 9 4 25 10 35 14 9 3 20 7 25
8 4 2 8 3 10 5 4 3 69 18 117 26 19 3 287 7 595 9 308 1 565 3 570 4 7 1 10
479 9 1424 0 782 2 1427 5 1432 3 6 7 44 8 85 2 72 8 150 18 255 3 28 7 68 8
90 1 22 6 46 11 53 5 9 3 20 -7 29 -14 15 -33 19 -122 26 -17 2 -35 6 -41 9
-5 4 -19 5 -30 4 -10 -2 -23 -1 -29 3 -5 3 -21 7 -35 8 -14 1 -41 4 -60 8 -19
3 -51 8 -70 10 -19 2 -46 7 -60 10 -14 4 -41 8 -60 10 -19 2 -35 4 -35 5 0 1
-11 4 -25 6 -54 8 -86 13 -120 19 -19 3 -48 8 -65 10 -16 2 -30 4 -30 5 0 2
-13 4 -30 5 -16 2 -30 4 -30 5 0 1 -9 4 -20 6 -41 7 -81 14 -115 18 -19 3 -46
8 -60 12 -14 3 -36 7 -50 10 -14 2 -38 6 -55 9 -16 3 -43 8 -60 10 -16 2 -41
7 -55 10 -14 4 -36 8 -50 10 -14 1 -41 6 -60 10 -19 4 -44 9 -55 10 -11 2 -20
4 -20 5 0 2 -9 4 -20 6 -11 2 -33 6 -50 9 -29 5 -75 13 -105 18 -9 2 -21 6
-28 11 -6 4 -16 5 -21 1 -5 -3 -12 -1 -16 4 -3 5 -13 9 -23 9 -9 0 -30 3 -47
6 -16 4 -41 9 -55 11 -14 2 -40 8 -59 14 -19 6 -37 8 -42 6 -4 -3 -10 -1 -14
4 -3 5 -13 10 -23 9 -9 0 -30 3 -47 7 -16 4 -39 9 -50 10 -11 2 -20 4 -20 5 0
1 -7 3 -15 5 -8 2 -26 6 -40 9 -14 3 -35 7 -47 10 -47 12 -69 17 -103 22 -19
3 -43 10 -53 15 -9 6 -22 7 -27 4 -5 -3 -12 0 -15 6 -4 5 -13 8 -20 5 -7 -2
-16 -2 -19 2 -4 3 -12 7 -19 8 -38 7 -62 13 -62 15 0 1 -9 3 -20 4 -37 5 -75
14 -83 19 -5 3 -19 7 -33 10 -13 3 -35 8 -49 11 -14 3 -36 8 -49 11 -14 3 -28
7 -33 10 -8 5 -43 14 -68 18 -9 1 -21 5 -28 10 -6 4 -16 5 -21 1 -5 -3 -13 0
-16 6 -4 5 -13 8 -21 5 -7 -3 -16 -1 -19 4 -3 5 -13 9 -23 9 -23 0 -44 5 -60
15 -7 4 -16 5 -19 2 -3 -3 -12 -1 -20 5 -7 6 -13 8 -13 4 0 -4 -7 -2 -15 5 -8
7 -15 10 -15 6 0 -3 -16 1 -37 9 -20 8 -38 13 -41 10 -2 -2 -13 0 -24 6 -11 6
-29 13 -41 15 -38 9 -52 12 -52 14 0 1 -17 6 -47 13 -7 1 -19 6 -25 10 -7 5
-13 5 -13 1 0 -3 -7 -1 -15 6 -8 7 -15 10 -15 6 0 -3 -16 0 -35 8 -19 8 -35
12 -35 9 0 -3 -7 0 -15 7 -8 7 -15 9 -15 5 0 -4 -7 -2 -15 5 -8 7 -15 9 -15 5
0 -4 -7 -2 -15 5 -8 7 -15 10 -15 6 0 -3 -16 0 -35 8 -19 8 -35 12 -35 9 0 -3
-6 -1 -12 4 -11 9 -29 15 -88 30 -38 10 -45 12 -47 13 -2 2 -6 3 -10 4 -5 1
-12 4 -18 7 -5 4 -23 10 -40 14 -44 12 -45 12 -50 15 -3 1 -8 3 -12 4 -5 1
-18 7 -30 14 -13 7 -23 10 -23 6 0 -3 -7 -1 -15 6 -8 7 -15 9 -15 5 0 -4 -6
-3 -13 3 -7 6 -24 13 -39 16 -14 2 -36 9 -47 16 -12 6 -21 8 -21 4 0 -3 -7 -1
-15 6 -8 7 -15 10 -15 6 0 -4 -11 1 -25 10 -14 9 -25 13 -25 9 0 -4 -7 -2 -15
5 -8 7 -15 10 -15 6 0 -4 -11 1 -25 10 -14 9 -25 13 -25 9 0 -4 -7 -2 -15 5
-8 7 -15 10 -15 6 0 -4 -11 1 -25 10 -14 9 -25 13 -25 9 0 -4 -7 -2 -15 5 -8
7 -15 10 -15 6 0 -4 -12 2 -27 11 -15 10 -30 17 -33 17 -5 -2 -38 9 -70 23 -8
3 -17 7 -20 8 -3 0 -34 14 -70 30 -36 17 -67 30 -70 31 -3 0 -22 8 -44 17 -21
9 -41 17 -44 17 -2 0 -23 9 -46 19 -23 11 -81 39 -131 61 -131 61 -412 200
-468 232 -26 16 -51 28 -55 28 -4 0 -7 -987 -6 -2192z"/>
<path d="M23566 19862 c-3 -5 -92 -52 -198 -104 -173 -87 -250 -123 -398 -190
-25 -11 -60 -28 -79 -37 -19 -9 -37 -16 -40 -17 -3 0 -15 -4 -26 -9 -56 -22
-144 -59 -175 -73 -19 -9 -38 -17 -42 -18 -5 -1 -9 -2 -10 -4 -2 -1 -10 -3
-18 -5 -8 -2 -33 -11 -55 -21 -22 -10 -42 -18 -45 -19 -7 -1 -69 -25 -107 -41
-17 -8 -37 -14 -45 -14 -8 0 -19 -5 -26 -12 -7 -7 -12 -8 -12 -4 0 5 -11 1
-25 -8 -14 -9 -25 -14 -25 -12 0 3 -17 -2 -37 -10 -20 -9 -44 -17 -52 -19 -14
-3 -41 -12 -116 -41 -11 -4 -22 -8 -25 -9 -29 -7 -261 -82 -312 -101 -38 -13
-68 -21 -68 -18 0 4 -7 1 -15 -6 -8 -7 -15 -9 -15 -5 0 4 -7 2 -15 -5 -8 -7
-15 -9 -15 -6 0 4 -9 2 -21 -4 -11 -6 -28 -13 -37 -15 -9 -1 -44 -10 -77 -19
-33 -10 -67 -19 -75 -21 -8 -2 -17 -4 -20 -5 -3 -1 -8 -2 -12 -1 -4 0 -22 -6
-40 -13 -18 -8 -36 -15 -40 -15 -5 -1 -9 -1 -10 -2 -7 -2 -35 -9 -53 -13 -11
-2 -20 -5 -20 -6 0 -1 -7 -3 -15 -5 -8 -2 -26 -7 -40 -10 -14 -3 -32 -8 -40
-10 -8 -2 -16 -4 -17 -5 -2 -2 -7 -4 -13 -5 -5 -1 -11 -3 -12 -5 -2 -1 -10 -3
-18 -5 -8 -2 -26 -6 -40 -9 -14 -3 -35 -7 -48 -10 -12 -3 -27 -8 -34 -12 -6
-4 -21 -8 -32 -10 -12 -2 -31 -5 -43 -8 -13 -4 -33 -9 -45 -12 -13 -3 -30 -7
-38 -9 -8 -2 -15 -4 -15 -6 0 -1 -10 -3 -22 -5 -13 -2 -33 -6 -45 -8 -13 -2
-23 -4 -23 -5 0 -2 -11 -5 -25 -8 -32 -6 -54 -11 -60 -13 -3 -1 -9 -3 -15 -5
-5 -1 -12 -3 -15 -4 -5 -3 -30 -8 -70 -15 -14 -2 -25 -5 -25 -6 0 -1 -7 -3
-15 -5 -36 -8 -76 -16 -95 -20 -24 -5 -58 -13 -65 -15 -3 -1 -9 -3 -15 -5 -5
-1 -13 -3 -17 -5 -5 -1 -17 -4 -28 -5 -11 -1 -21 -3 -22 -5 -4 -2 -38 -9 -68
-14 -14 -2 -26 -5 -27 -6 -2 -1 -12 -4 -23 -5 -11 -1 -21 -4 -22 -5 -2 -1 -12
-4 -23 -6 -33 -5 -68 -12 -100 -19 -16 -4 -39 -8 -50 -10 -11 -1 -20 -3 -20
-4 0 -1 -11 -4 -25 -6 -24 -3 -50 -8 -100 -20 -39 -8 -83 -17 -105 -20 -11 -1
-20 -3 -20 -5 0 -1 -11 -3 -25 -5 -14 -2 -36 -6 -50 -9 -14 -3 -41 -8 -60 -11
-19 -3 -46 -7 -60 -10 -14 -3 -36 -9 -50 -12 -14 -3 -36 -7 -50 -8 -14 -2 -25
-4 -25 -5 0 -2 -12 -4 -27 -6 -16 -2 -40 -6 -55 -8 -16 -2 -28 -4 -28 -6 0 -1
-13 -4 -30 -6 -55 -8 -80 -12 -82 -14 -2 -1 -12 -4 -23 -5 -11 -1 -21 -3 -22
-5 -2 -1 -16 -3 -33 -5 -16 -2 -46 -7 -65 -10 -19 -3 -48 -8 -65 -10 -16 -1
-30 -4 -30 -5 0 -2 -11 -4 -25 -5 -23 -2 -72 -10 -130 -20 -45 -8 -105 -17
-125 -19 -11 0 -24 -4 -30 -7 -5 -4 -19 -5 -29 -3 -11 1 -24 0 -30 -4 -6 -3
-22 -7 -36 -8 -14 -1 -45 -5 -70 -9 -25 -4 -56 -8 -70 -10 -14 -2 -25 -4 -25
-5 0 -1 -19 -3 -41 -5 -54 -3 -61 -9 -58 -42 1 -15 3 -28 4 -28 2 0 5 -32 14
-145 2 -30 5 -55 6 -55 3 0 8 -87 15 -250 3 -71 7 -745 8 -1497 1 -753 4
-1369 7 -1369 3 -1 259 -3 570 -5 578 -3 616 -4 638 -18 8 -4 16 -5 19 -2 3 3
21 -1 40 -9 19 -8 37 -14 41 -13 4 1 22 -6 39 -15 18 -10 36 -18 40 -19 69
-10 253 -165 318 -268 41 -66 95 -173 95 -191 0 -9 3 -19 7 -23 4 -3 8 -14 9
-24 3 -22 12 -57 14 -57 6 0 10 -107 12 -261 l3 -172 25 5 c42 8 55 11 55 14
0 1 9 3 20 5 11 1 30 5 43 8 79 21 106 27 127 31 11 2 30 6 43 9 23 6 55 14
82 21 8 2 15 4 15 5 0 1 7 3 15 5 8 2 25 6 38 9 12 3 32 9 45 12 12 3 29 7 37
9 8 2 16 4 18 5 1 2 6 3 11 4 5 0 12 4 16 8 4 4 13 4 20 2 7 -3 16 0 20 5 3 6
10 9 15 6 5 -3 18 -1 28 4 11 6 30 12 43 15 57 12 74 16 108 28 20 6 43 13 51
14 8 1 47 12 85 24 39 12 77 24 85 25 8 2 16 4 18 5 1 2 5 3 10 4 46 12 100
28 112 33 8 4 18 7 23 8 4 2 9 4 12 5 3 1 10 4 15 5 6 1 11 3 13 5 2 2 16 5
54 14 12 2 32 10 45 17 13 7 24 12 26 11 1 -1 4 -1 7 -1 3 1 10 3 15 4 6 1 11
3 13 5 1 1 10 3 20 5 10 2 26 7 35 11 9 4 19 8 22 9 12 3 86 27 100 32 8 4 17
7 20 7 3 1 11 5 18 9 6 5 12 6 12 3 0 -2 24 5 53 16 28 10 57 20 62 21 6 2 16
6 23 10 6 5 12 6 12 2 0 -3 10 0 23 7 12 7 25 13 30 14 4 1 8 2 10 4 1 1 9 3
17 5 8 1 49 16 90 32 93 37 115 45 115 42 0 -1 11 4 25 11 14 8 27 15 30 16 9
2 44 15 70 26 14 6 31 12 38 14 7 1 24 9 37 18 13 9 28 16 33 16 5 0 31 10 58
22 27 11 49 20 49 18 0 -1 30 14 68 33 37 20 67 34 67 32 0 -3 75 34 168 81
234 121 233 120 319 177 23 15 44 27 48 27 6 0 94 60 195 133 93 67 232 215
265 282 l30 60 0 2208 c0 2186 -1 2245 -29 2199z"/>
<path d="M23652 19670 c0 -14 2 -19 5 -12 2 6 2 18 0 25 -3 6 -5 1 -5 -13z"/>
<path d="M23651 19344 c0 -11 3 -14 6 -6 3 7 2 16 -1 19 -3 4 -6 -2 -5 -13z"/>
<path d="M23652 19110 c0 -14 2 -19 5 -12 2 6 2 18 0 25 -3 6 -5 1 -5 -13z"/>
<path d="M23652 18870 c0 -14 2 -19 5 -12 2 6 2 18 0 25 -3 6 -5 1 -5 -13z"/>
<path d="M23652 18630 c0 -14 2 -19 5 -12 2 6 2 18 0 25 -3 6 -5 1 -5 -13z"/>
<path d="M23652 18390 c0 -14 2 -19 5 -12 2 6 2 18 0 25 -3 6 -5 1 -5 -13z"/>
<path d="M7898 18131 c0 -3 -2 -10 -3 -16 -2 -5 -4 -12 -5 -15 -2 -3 -4 -23
-6 -45 -2 -22 -6 -62 -8 -90 -3 -27 -8 -90 -11 -140 -8 -110 -12 -2875 -5
-2876 3 -1 1973 -2 4377 -3 2911 -1 4374 2 4376 9 9 29 -4 2960 -13 2960 -1 0
-3 20 -4 45 -1 25 -4 50 -7 55 -3 6 -5 24 -4 40 2 17 -1 35 -5 40 -8 10 -10
16 -10 33 0 4 -19 7 -42 6 -24 -1 -43 -2 -43 -4 0 -1 -22 -4 -50 -6 -49 -3
-123 -10 -220 -19 -27 -3 -79 -7 -115 -10 -36 -3 -92 -7 -125 -10 -56 -5 -91
-8 -250 -19 -33 -3 -94 -8 -135 -11 -41 -4 -102 -8 -135 -10 -33 -3 -91 -7
-130 -10 -183 -13 -226 -16 -310 -19 -49 -2 -90 -5 -90 -6 0 -1 -40 -3 -90 -5
-49 -1 -90 -4 -90 -5 0 -1 -40 -4 -90 -6 -49 -2 -137 -6 -195 -9 -242 -11
-351 -16 -455 -18 -60 -1 -114 -5 -120 -8 -5 -3 -77 -5 -160 -4 -82 1 -154 -1
-160 -4 -14 -8 -286 -11 -1365 -14 -525 -2 -959 -1 -965 2 -5 3 -86 7 -180 8
-260 4 -587 16 -1050 38 -326 16 -344 17 -545 29 -188 12 -270 17 -335 20 -38
2 -70 5 -70 6 0 2 -27 4 -190 14 -38 2 -70 5 -70 6 0 1 -25 4 -55 6 -30 2 -86
6 -125 9 -38 3 -99 7 -135 9 -36 2 -65 5 -65 6 0 2 -49 7 -160 14 -33 2 -60 5
-60 6 0 1 -22 4 -50 6 -27 2 -77 6 -110 9 -106 10 -135 12 -137 6z"/>
<path d="M23652 17430 c0 -14 2 -19 5 -12 2 6 2 18 0 25 -3 6 -5 1 -5 -13z"/>
<path d="M23652 17190 c0 -14 2 -19 5 -12 2 6 2 18 0 25 -3 6 -5 1 -5 -13z"/>
<path d="M23652 16950 c0 -14 2 -19 5 -12 2 6 2 18 0 25 -3 6 -5 1 -5 -13z"/>
<path d="M23652 16710 c0 -14 2 -19 5 -12 2 6 2 18 0 25 -3 6 -5 1 -5 -13z"/>
<path d="M23652 16470 c0 -14 2 -19 5 -12 2 6 2 18 0 25 -3 6 -5 1 -5 -13z"/>
<path d="M23652 15510 c0 -14 2 -19 5 -12 2 6 2 18 0 25 -3 6 -5 1 -5 -13z"/>
<path d="M23652 15270 c0 -14 2 -19 5 -12 2 6 2 18 0 25 -3 6 -5 1 -5 -13z"/>
<path d="M23652 15150 c0 -14 2 -19 5 -12 2 6 2 18 0 25 -3 6 -5 1 -5 -13z"/>
<path d="M23652 15030 c0 -14 2 -19 5 -12 2 6 2 18 0 25 -3 6 -5 1 -5 -13z"/>
<path d="M23652 14790 c0 -14 2 -19 5 -12 2 6 2 18 0 25 -3 6 -5 1 -5 -13z"/>
<path d="M23652 14670 c0 -14 2 -19 5 -12 2 6 2 18 0 25 -3 6 -5 1 -5 -13z"/>
<path d="M23652 14550 c0 -14 2 -19 5 -12 2 6 2 18 0 25 -3 6 -5 1 -5 -13z"/>
<path d="M23652 14430 c0 -14 2 -19 5 -12 2 6 2 18 0 25 -3 6 -5 1 -5 -13z"/>
<path d="M23651 14224 c0 -11 3 -14 6 -6 3 7 2 16 -1 19 -3 4 -6 -2 -5 -13z"/>
<path d="M23652 14110 c0 -14 2 -19 5 -12 2 6 2 18 0 25 -3 6 -5 1 -5 -13z"/>
<path d="M23652 13990 c0 -14 2 -19 5 -12 2 6 2 18 0 25 -3 6 -5 1 -5 -13z"/>
<path d="M23652 13870 c0 -14 2 -19 5 -12 2 6 2 18 0 25 -3 6 -5 1 -5 -13z"/>
<path d="M23652 13750 c0 -14 2 -19 5 -12 2 6 2 18 0 25 -3 6 -5 1 -5 -13z"/>
<path d="M875 11143 c1 -1204 5 -2199 9 -2213 47 -139 354 -402 701 -599 61
-34 121 -69 135 -77 48 -27 379 -188 390 -189 3 0 10 -3 15 -7 6 -3 48 -21 95
-40 47 -19 94 -39 105 -43 11 -5 22 -9 25 -10 3 -1 16 -6 30 -12 63 -27 115
-48 120 -49 3 0 23 -8 45 -18 22 -10 47 -19 55 -21 8 -2 16 -4 18 -5 1 -2 5
-3 10 -4 4 -1 16 -7 27 -12 16 -9 50 -20 85 -29 3 0 15 -6 28 -13 12 -7 22
-10 22 -6 0 3 7 1 15 -6 8 -7 15 -10 15 -6 0 4 13 0 29 -9 17 -8 40 -17 53
-19 13 -3 23 -5 23 -6 0 -1 7 -3 15 -5 8 -2 42 -14 75 -25 33 -12 65 -23 70
-24 6 -2 18 -6 27 -10 9 -4 25 -9 35 -11 10 -2 19 -4 21 -5 1 -2 7 -4 12 -5 6
-1 11 -3 13 -5 1 -1 10 -3 20 -6 29 -7 41 -11 57 -17 8 -4 26 -9 40 -11 14 -3
26 -5 28 -7 1 -1 7 -3 12 -4 6 -1 12 -4 15 -5 3 -1 10 -4 15 -5 6 -1 12 -4 15
-5 3 -1 8 -3 13 -4 4 -1 13 -5 20 -9 6 -5 12 -6 12 -3 0 3 18 -1 40 -9 22 -8
42 -14 45 -15 3 0 7 -1 10 -1 3 -1 10 -3 15 -4 6 -1 11 -3 13 -5 1 -1 10 -3
20 -6 9 -2 25 -6 35 -8 9 -3 17 -5 17 -6 0 -1 8 -3 18 -6 9 -2 25 -6 35 -8 9
-3 17 -5 17 -6 0 -1 13 -4 29 -6 16 -3 38 -10 48 -15 10 -5 23 -7 28 -4 5 3
11 1 14 -4 4 -5 25 -13 49 -17 48 -9 56 -11 60 -14 2 -2 20 -6 62 -15 54 -12
60 -13 65 -15 3 -1 10 -3 15 -5 6 -1 12 -3 15 -4 6 -3 36 -10 65 -15 11 -3 35
-9 53 -14 18 -6 35 -11 37 -11 3 -1 6 -1 8 -2 4 -1 30 -7 52 -12 11 -3 45 -12
76 -20 31 -8 61 -12 66 -8 10 7 12 4786 1 4796 -3 3 -21 8 -40 10 -18 2 -33 4
-33 5 0 2 -9 4 -20 6 -11 1 -31 5 -45 9 -46 11 -75 17 -95 20 -11 2 -20 4 -20
5 0 1 -11 4 -25 7 -38 7 -55 11 -57 13 -2 2 -11 3 -20 4 -10 2 -36 8 -58 14
-22 6 -49 13 -60 15 -11 2 -38 9 -60 15 -41 11 -89 22 -115 26 -9 1 -21 6 -28
10 -7 4 -16 5 -19 2 -3 -3 -12 -1 -20 5 -7 6 -13 9 -13 6 0 -3 -15 -1 -32 4
-18 6 -40 12 -48 14 -8 2 -30 8 -47 14 -18 5 -33 7 -33 4 0 -3 -7 0 -15 7 -8
7 -15 10 -15 6 0 -3 -11 -1 -26 4 -14 6 -39 13 -57 16 -43 8 -62 12 -64 14 -2
2 -7 4 -13 5 -5 1 -11 3 -12 5 -4 2 -36 10 -63 15 -11 2 -39 10 -62 19 -24 8
-43 13 -43 11 0 -2 -19 3 -42 11 -24 9 -54 18 -67 20 -13 3 -32 9 -43 15 -10
5 -18 8 -18 5 0 -3 -25 4 -55 14 -30 10 -55 16 -55 13 0 -3 -6 -1 -12 4 -7 6
-26 14 -43 18 -45 12 -45 12 -47 15 -2 1 -11 3 -20 6 -28 6 -42 10 -58 17 -22
8 -183 60 -197 64 -7 2 -19 4 -25 6 -7 1 -17 5 -23 8 -10 6 -115 43 -125 44
-3 0 -11 4 -17 8 -7 5 -13 6 -13 2 0 -3 -13 1 -30 10 -16 8 -33 16 -37 16 -5
1 -19 6 -33 11 -14 6 -29 11 -35 12 -5 1 -15 5 -21 8 -6 4 -23 9 -39 12 -15 3
-33 10 -39 16 -5 5 -16 10 -24 10 -8 0 -28 6 -45 14 -28 12 -61 25 -77 31 -3
1 -14 5 -25 9 -43 16 -50 19 -55 21 -3 1 -16 6 -30 12 -21 10 -52 22 -70 28
-27 9 -70 28 -90 39 -14 8 -29 15 -35 16 -10 3 -36 13 -80 31 -118 48 -419
193 -599 287 -44 23 -82 42 -85 42 -4 0 -6 -984 -6 -2187z"/>
<path d="M23555 13316 c-35 -24 -485 -246 -500 -246 -5 0 -114 -53 -157 -76
-16 -8 -28 -13 -28 -10 0 3 -28 -8 -62 -23 -67 -30 -97 -41 -101 -39 -1 1 -13
-5 -27 -12 -14 -8 -27 -15 -30 -15 -3 0 -16 -7 -30 -15 -14 -7 -26 -12 -28
-11 -1 1 -33 -9 -70 -23 -99 -37 -116 -43 -127 -46 -5 -1 -16 -6 -22 -12 -7
-6 -13 -7 -13 -3 0 4 -11 0 -25 -9 -14 -9 -25 -14 -25 -11 0 3 -9 1 -21 -5
-11 -6 -28 -13 -37 -15 -9 -2 -28 -8 -42 -13 -14 -5 -28 -10 -33 -11 -4 0 -21
-8 -37 -16 -16 -8 -33 -15 -37 -15 -15 0 -78 -23 -90 -33 -7 -5 -13 -7 -13 -4
0 4 -20 -2 -44 -13 -24 -10 -46 -17 -48 -14 -2 2 -29 -6 -59 -17 -30 -11 -61
-22 -69 -24 -8 -2 -27 -8 -42 -14 -16 -6 -28 -8 -28 -6 0 3 -17 -2 -37 -11
-21 -8 -46 -18 -55 -20 -10 -2 -26 -6 -35 -8 -10 -2 -30 -9 -46 -15 -15 -6
-38 -13 -50 -15 -12 -2 -41 -11 -65 -20 -23 -8 -44 -15 -47 -16 -3 0 -6 0 -7
-1 -2 0 -14 -2 -27 -5 -14 -2 -30 -9 -36 -14 -7 -5 -15 -7 -18 -3 -4 3 -13 1
-20 -5 -8 -7 -16 -10 -19 -7 -3 3 -22 -2 -44 -11 -21 -9 -40 -16 -41 -15 -2 0
-4 1 -5 0 -7 -2 -35 -9 -53 -13 -11 -2 -22 -5 -25 -6 -3 -1 -9 -2 -14 -1 -4 1
-14 -4 -22 -10 -8 -6 -14 -8 -14 -4 0 4 -7 2 -15 -5 -8 -7 -15 -10 -15 -7 0 3
-24 -1 -52 -10 -29 -8 -60 -17 -68 -18 -8 -2 -15 -4 -15 -5 0 -1 -11 -4 -25
-7 -32 -6 -54 -11 -60 -13 -3 -1 -9 -3 -15 -5 -5 -1 -12 -3 -15 -4 -5 -3 -30
-8 -70 -15 -14 -2 -25 -5 -25 -6 0 -2 -9 -4 -20 -5 -11 -1 -40 -8 -65 -16 -56
-16 -47 -14 -100 -24 -53 -10 -59 -12 -62 -15 -2 -1 -12 -3 -23 -5 -11 -2 -31
-6 -45 -10 -14 -4 -34 -8 -45 -10 -11 -2 -31 -7 -45 -10 -14 -3 -34 -8 -45
-10 -11 -2 -30 -6 -42 -9 -34 -9 -65 -16 -98 -22 -16 -3 -32 -9 -35 -14 -4 -7
-6 -4743 -1 -4788 0 -7 6 -10 11 -7 6 4 20 8 33 11 25 4 57 11 90 20 12 3 29
7 37 9 8 2 15 4 15 5 0 2 26 8 60 15 11 2 31 6 45 10 14 3 36 8 50 11 14 3 39
9 56 15 17 5 41 12 53 14 45 10 57 14 82 23 15 6 29 9 31 6 3 -2 21 3 41 11
21 8 37 12 37 9 0 -4 6 -2 13 3 6 6 19 11 27 11 16 1 55 9 55 12 0 1 8 3 18 6
9 2 25 6 35 8 9 3 18 5 20 6 1 2 5 3 10 4 4 1 13 5 20 10 7 4 16 5 19 2 3 -3
15 0 26 5 11 6 29 13 41 14 26 5 60 13 64 15 1 2 5 3 10 4 4 1 13 5 20 9 6 5
12 6 12 3 0 -3 16 2 35 10 19 8 35 11 35 8 0 -4 6 -2 13 4 7 6 25 13 40 16 15
2 31 7 37 11 6 4 22 9 37 11 15 3 33 10 40 16 7 6 13 7 13 4 0 -4 9 -2 21 4
11 7 32 14 47 16 14 3 30 8 36 12 6 3 18 8 26 10 18 3 29 7 53 15 19 8 37 13
52 17 6 1 18 6 28 12 10 5 30 12 45 14 14 3 30 8 36 12 6 4 14 7 19 8 4 1 8 2
10 4 1 1 9 3 17 5 8 2 29 9 45 16 17 7 32 13 35 14 29 7 88 30 98 38 6 5 12 6
12 3 0 -4 10 -1 23 6 12 7 25 13 30 14 4 1 8 2 10 4 1 1 9 3 17 5 8 2 33 11
55 21 22 10 45 18 50 20 6 1 33 12 60 25 28 13 52 24 55 24 7 2 46 19 95 40
22 10 45 19 52 21 11 2 439 214 473 234 8 5 51 30 95 56 44 26 96 56 115 67
72 40 259 178 345 255 101 90 245 262 219 262 -4 0 -2 6 3 13 13 17 11 4379
-2 4384 -6 2 -19 -3 -30 -11z"/>
<path d="M23652 13270 c0 -14 2 -19 5 -12 2 6 2 18 0 25 -3 6 -5 1 -5 -13z"/>
<path d="M23652 12310 c0 -14 2 -19 5 -12 2 6 2 18 0 25 -3 6 -5 1 -5 -13z"/>
<path d="M23652 12070 c0 -14 2 -19 5 -12 2 6 2 18 0 25 -3 6 -5 1 -5 -13z"/>
<path d="M23652 11830 c0 -14 2 -19 5 -12 2 6 2 18 0 25 -3 6 -5 1 -5 -13z"/>
<path d="M23652 11590 c0 -14 2 -19 5 -12 2 6 2 18 0 25 -3 6 -5 1 -5 -13z"/>
<path d="M23652 11350 c0 -14 2 -19 5 -12 2 6 2 18 0 25 -3 6 -5 1 -5 -13z"/>
<path d="M12064 11230 c-3 -3 -19 -6 -35 -6 -16 -1 -30 -3 -31 -4 -2 -1 -19
-4 -38 -6 -37 -4 -75 -11 -75 -14 0 -1 -11 -3 -25 -4 -14 -2 -35 -8 -46 -14
-12 -6 -24 -9 -27 -6 -3 3 -15 0 -27 -6 -12 -6 -33 -14 -48 -16 -14 -3 -30 -8
-36 -12 -6 -3 -15 -7 -21 -8 -14 -2 -186 -81 -240 -111 -199 -107 -485 -384
-596 -578 -29 -52 -112 -210 -110 -210 2 0 -3 -13 -10 -30 -7 -16 -13 -32 -14
-35 -1 -3 -5 -13 -9 -22 -4 -9 -9 -22 -10 -30 -2 -7 -6 -20 -9 -28 -4 -8 -9
-26 -11 -40 -3 -14 -5 -26 -7 -27 -1 -2 -3 -7 -4 -13 -1 -5 -3 -11 -4 -12 -2
-3 -5 -16 -15 -68 -2 -14 -5 -25 -6 -25 -2 0 -8 -38 -13 -86 -2 -19 -6 -39 -9
-45 -4 -9 -3 -367 2 -371 1 -2 4 -16 5 -33 1 -16 4 -32 5 -35 1 -3 4 -14 5
-25 1 -11 4 -21 5 -22 1 -2 3 -14 5 -28 2 -14 6 -36 10 -50 3 -14 8 -32 10
-40 2 -8 4 -15 5 -15 1 0 3 -8 5 -17 5 -29 26 -91 41 -125 8 -17 14 -34 14
-38 0 -8 85 -181 108 -220 112 -187 270 -361 446 -493 55 -41 108 -77 116 -80
12 -5 81 -46 100 -60 3 -2 5 -355 5 -785 l0 -782 305 -2 c626 -6 1203 -1 1210
8 3 4 5 353 4 776 0 422 3 776 8 786 5 9 15 17 23 17 21 0 198 123 297 206 47
41 111 102 141 136 65 75 167 210 167 221 0 5 11 23 23 40 24 32 116 214 121
239 3 12 6 22 23 66 3 9 7 20 8 25 2 4 4 10 5 15 2 4 4 12 5 17 2 6 4 13 5 18
1 4 4 12 5 17 1 6 3 11 5 13 3 4 11 40 15 67 1 14 4 25 5 25 5 0 18 86 26 170
12 130 1 404 -20 472 -3 10 -8 32 -11 48 -9 52 -13 69 -24 98 -6 15 -8 27 -5
27 4 0 1 7 -6 15 -7 8 -9 15 -5 15 4 0 2 7 -5 15 -7 8 -9 15 -5 15 4 0 3 6 -3
13 -6 6 -11 15 -11 19 -7 46 -80 198 -144 302 -133 216 -358 434 -585 565 -70
41 -147 77 -147 70 0 -2 -16 6 -35 18 -19 12 -39 22 -45 24 -20 4 -41 11 -74
25 -18 8 -35 13 -38 10 -2 -2 -16 2 -30 9 -15 8 -30 12 -35 9 -4 -3 -14 -2
-20 3 -14 8 -30 12 -68 18 -14 1 -25 4 -25 5 0 1 -13 4 -30 6 -16 1 -50 6 -75
9 -57 8 -359 13 -366 5z"/>
<path d="M23652 10390 c0 -14 2 -19 5 -12 2 6 2 18 0 25 -3 6 -5 1 -5 -13z"/>
<path d="M23652 10150 c0 -14 2 -19 5 -12 2 6 2 18 0 25 -3 6 -5 1 -5 -13z"/>
<path d="M23652 9910 c0 -14 2 -19 5 -12 2 6 2 18 0 25 -3 6 -5 1 -5 -13z"/>
<path d="M23652 9670 c0 -14 2 -19 5 -12 2 6 2 18 0 25 -3 6 -5 1 -5 -13z"/>
<path d="M23652 9430 c0 -14 2 -19 5 -12 2 6 2 18 0 25 -3 6 -5 1 -5 -13z"/>
<path d="M23651 9104 c0 -11 3 -14 6 -6 3 7 2 16 -1 19 -3 4 -6 -2 -5 -13z"/>
<path d="M23652 8870 c0 -14 2 -19 5 -12 2 6 2 18 0 25 -3 6 -5 1 -5 -13z"/>
<path d="M23652 8750 c0 -14 2 -19 5 -12 2 6 2 18 0 25 -3 6 -5 1 -5 -13z"/>
<path d="M23652 8630 c0 -14 2 -19 5 -12 2 6 2 18 0 25 -3 6 -5 1 -5 -13z"/>
<path d="M23652 8390 c0 -14 2 -19 5 -12 2 6 2 18 0 25 -3 6 -5 1 -5 -13z"/>
<path d="M23652 8270 c0 -14 2 -19 5 -12 2 6 2 18 0 25 -3 6 -5 1 -5 -13z"/>
<path d="M23652 8150 c0 -14 2 -19 5 -12 2 6 2 18 0 25 -3 6 -5 1 -5 -13z"/>
<path d="M23652 8030 c0 -14 2 -19 5 -12 2 6 2 18 0 25 -3 6 -5 1 -5 -13z"/>
<path d="M23652 7190 c0 -14 2 -19 5 -12 2 6 2 18 0 25 -3 6 -5 1 -5 -13z"/>
<path d="M23652 7070 c0 -14 2 -19 5 -12 2 6 2 18 0 25 -3 6 -5 1 -5 -13z"/>
<path d="M23651 6894 c0 -11 3 -14 6 -6 3 7 2 16 -1 19 -3 4 -6 -2 -5 -13z"/>
<path d="M879 6799 c-1 -2 -2 -991 -3 -2197 -1 -2054 0 -2195 16 -2228 43 -90
231 -278 370 -373 31 -21 78 -53 104 -73 27 -19 56 -38 64 -42 8 -3 27 -14 42
-24 160 -103 613 -334 738 -377 3 -1 17 -7 32 -13 15 -6 67 -27 115 -47 48
-20 97 -40 108 -44 18 -8 50 -21 65 -26 3 -1 19 -7 35 -14 17 -7 35 -14 40
-15 6 -1 15 -5 22 -9 8 -5 100 -37 153 -52 3 -1 19 -7 35 -14 17 -7 35 -14 40
-15 6 -1 42 -13 80 -26 39 -13 72 -24 75 -25 3 0 10 -3 15 -6 8 -5 41 -15 75
-24 3 0 46 -14 95 -30 99 -32 101 -32 130 -39 11 -2 21 -5 23 -6 1 -2 5 -3 10
-4 4 -2 27 -8 52 -15 25 -7 50 -14 55 -16 6 -1 18 -5 27 -9 9 -4 25 -9 35 -11
10 -2 18 -4 18 -5 0 -1 7 -3 15 -5 8 -2 25 -6 38 -9 12 -3 32 -9 45 -12 12 -3
29 -7 37 -9 8 -2 16 -4 18 -5 1 -2 7 -4 12 -5 6 -1 11 -3 13 -5 1 -1 9 -3 17
-5 8 -2 40 -11 70 -20 30 -9 62 -18 70 -19 9 -1 21 -5 28 -10 6 -4 16 -5 21
-1 5 3 13 0 16 -6 4 -5 13 -8 21 -5 7 3 16 1 20 -5 3 -6 12 -8 20 -5 7 3 16 1
20 -5 3 -6 12 -8 20 -5 7 3 16 1 20 -5 3 -6 12 -8 20 -5 7 3 16 1 20 -5 3 -6
12 -8 20 -5 7 3 16 1 19 -4 3 -5 13 -9 23 -9 23 0 44 -5 60 -14 6 -5 16 -6 21
-2 5 3 13 0 16 -6 4 -5 13 -8 21 -5 7 3 16 1 19 -4 3 -5 13 -9 23 -9 16 0 54
-7 60 -11 1 -2 5 -3 10 -4 20 -5 88 -19 97 -21 6 -1 12 -3 15 -4 3 -2 12 -4
20 -6 53 -11 79 -17 105 -22 46 -8 60 -11 63 -13 1 -2 11 -4 22 -5 11 -1 22
-4 25 -5 6 -3 6 -3 60 -14 61 -14 67 -15 105 -21 57 -10 75 -13 75 -15 0 -2 9
-4 20 -6 65 -10 80 -13 80 -14 0 -3 73 -19 115 -25 14 -1 25 -4 25 -5 0 -3 27
-8 70 -14 17 -2 30 -5 30 -6 0 -2 31 -8 80 -16 22 -3 51 -8 65 -10 14 -3 36
-7 50 -9 14 -1 25 -4 25 -5 0 -3 88 -19 135 -25 14 -2 41 -6 60 -10 19 -4 46
-9 60 -10 14 -2 25 -4 25 -5 0 -2 14 -4 30 -5 17 -2 30 -4 30 -5 0 -2 11 -4
25 -5 14 -1 43 -5 65 -10 22 -4 56 -9 75 -10 19 -2 35 -4 35 -5 0 -2 14 -4 30
-5 17 -2 30 -4 30 -5 0 -1 11 -4 25 -6 14 -2 41 -6 60 -9 19 -3 51 -8 70 -10
19 -2 49 -6 65 -10 17 -4 44 -8 60 -11 17 -2 46 -6 65 -9 19 -4 53 -8 75 -10
22 -1 40 -4 40 -5 0 -2 23 -5 100 -14 22 -3 40 -5 40 -6 0 -1 16 -4 35 -6 19
-2 53 -6 75 -9 52 -7 111 -14 155 -19 19 -2 35 -5 35 -6 0 -1 16 -4 35 -6 19
-2 53 -6 75 -9 71 -9 129 -16 170 -19 22 -2 40 -5 40 -6 0 -1 16 -4 35 -6 81
-9 128 -14 175 -18 28 -2 50 -5 50 -6 0 -1 16 -4 35 -5 19 -2 62 -6 95 -10 33
-3 80 -7 105 -9 25 -2 45 -5 45 -6 0 -2 23 -4 50 -5 28 -2 52 -4 55 -5 3 -2
19 -4 35 -5 17 -2 57 -6 90 -9 33 -4 85 -9 115 -12 30 -2 75 -7 100 -9 78 -8
163 -16 220 -19 30 -2 55 -5 55 -6 0 -1 27 -4 60 -5 33 -2 60 -4 60 -5 0 -1
29 -4 65 -6 64 -4 127 -9 265 -19 39 -3 106 -7 150 -10 44 -3 112 -8 150 -11
39 -2 106 -6 150 -8 44 -2 80 -5 80 -6 0 -1 36 -4 80 -6 44 -2 123 -6 175 -9
364 -20 722 -34 942 -38 86 -1 160 -5 164 -9 3 -4 14 -4 23 0 15 7 39 8 51 2
21 -10 1821 -14 2220 -5 467 11 535 13 535 15 0 1 61 4 135 6 138 4 265 9 450
19 58 3 146 8 195 10 162 9 269 15 350 20 44 3 112 7 150 9 39 2 72 4 75 6 3
1 41 4 85 6 92 4 199 11 300 19 39 3 93 7 120 9 28 2 52 4 55 6 3 1 32 3 65 5
33 1 60 4 60 5 0 1 23 4 50 5 50 3 145 11 240 21 28 2 73 6 100 8 28 2 50 5
50 6 0 1 25 4 55 6 104 8 145 12 145 14 0 1 20 4 45 5 41 3 97 9 190 20 72 9
146 16 190 19 25 2 46 4 48 6 1 1 20 4 42 5 22 1 41 4 43 5 1 1 18 4 37 6 19
2 58 6 85 9 28 3 64 7 80 9 17 2 32 4 35 6 3 1 25 4 50 6 25 1 61 6 80 9 19 3
53 7 75 9 22 2 40 5 40 6 0 1 14 3 30 5 17 2 55 6 85 10 52 6 69 8 145 20 37
6 87 13 140 20 50 7 90 13 135 20 19 3 49 8 65 10 17 3 44 7 60 9 17 2 31 5
33 6 1 1 16 4 32 5 17 1 31 4 33 5 1 1 13 3 27 5 14 2 43 6 65 10 22 3 52 8
68 11 15 2 42 6 60 10 17 3 41 6 52 7 11 1 25 5 30 8 6 4 19 5 29 3 11 -1 25
0 30 4 6 3 22 7 36 8 14 1 25 2 25 4 0 1 16 4 35 6 65 8 85 11 85 14 0 1 14 3
30 5 17 2 41 6 55 10 14 3 41 8 60 11 62 9 75 11 75 14 0 1 11 3 25 5 34 5 80
13 110 20 24 5 60 12 105 19 11 2 20 4 20 5 0 1 14 4 30 7 36 5 69 12 73 14 1
2 11 4 22 5 11 1 21 4 23 5 1 1 13 4 27 5 14 2 36 6 50 10 14 3 36 8 50 10 34
5 82 15 102 21 22 7 59 15 83 18 11 2 20 4 20 5 0 3 35 12 65 16 14 1 25 4 25
5 0 1 7 3 15 5 36 8 76 16 95 20 33 6 60 13 60 15 0 1 11 4 25 5 27 4 65 13
65 15 0 2 18 6 64 15 19 3 37 8 41 10 3 2 18 6 33 9 25 6 58 13 97 21 8 2 15
4 15 5 0 1 7 3 15 5 8 1 35 8 60 15 25 7 53 14 62 16 10 2 28 7 41 10 12 3 29
7 37 9 8 2 15 4 15 5 0 1 11 3 25 6 14 2 32 7 40 11 19 8 30 11 55 17 11 2 20
5 20 6 0 1 13 4 30 6 16 3 35 9 41 15 6 5 13 7 16 4 3 -3 20 1 39 9 19 8 37
15 42 15 4 1 8 1 10 2 3 1 27 7 52 13 11 2 32 9 48 15 15 6 27 8 27 5 0 -4 7
-1 15 6 8 7 15 10 15 7 0 -3 16 1 35 9 19 8 35 11 35 8 0 -4 6 -2 13 4 6 6 14
10 17 10 3 0 23 5 45 11 22 6 43 9 46 8 3 -1 13 4 22 12 10 7 17 10 17 6 0 -4
7 -2 15 5 8 7 15 10 15 6 0 -4 13 0 30 9 16 8 32 15 35 15 3 0 6 0 8 1 1 0 13
2 26 5 14 2 30 9 38 15 7 6 13 8 13 4 0 -4 7 -2 15 5 8 7 15 10 15 7 0 -3 17
1 37 9 20 9 44 17 52 19 9 2 27 8 41 13 14 5 28 10 33 11 4 0 21 8 37 16 17 9
30 13 30 9 0 -3 11 1 25 10 14 9 25 14 25 10 0 -4 7 -1 15 6 8 7 15 9 15 6 0
-4 10 -1 23 6 12 7 25 13 30 14 4 1 9 3 12 4 3 1 10 4 15 5 6 1 11 3 13 5 1 1
9 3 17 5 8 2 31 10 50 18 19 8 37 15 40 14 3 0 16 6 30 13 14 8 27 15 30 15 3
1 18 7 33 13 16 7 31 12 34 12 3 0 27 11 54 25 27 13 49 22 49 19 0 -3 12 2
28 10 41 22 181 87 184 85 3 -2 267 134 333 171 35 20 131 76 231 135 33 20
95 63 203 141 135 98 295 264 337 349 20 39 20 68 18 2225 -1 1202 -2 2189 -3
2194 0 5 -11 1 -23 -7 -25 -18 -426 -219 -430 -217 -2 1 -28 -11 -58 -26 -30
-16 -57 -29 -60 -29 -3 -1 -23 -10 -45 -20 -22 -10 -42 -19 -45 -20 -10 -4
-62 -25 -103 -43 -45 -21 -80 -34 -85 -32 -1 0 -16 -7 -32 -15 -16 -8 -33 -16
-37 -16 -5 -1 -25 -10 -45 -20 -21 -11 -38 -17 -38 -14 0 3 -10 0 -22 -7 -13
-7 -25 -13 -28 -13 -3 0 -16 -7 -30 -15 -14 -7 -26 -13 -27 -12 -2 1 -5 1 -8
1 -3 -1 -8 -2 -12 -3 -8 -2 -122 -45 -178 -67 -16 -7 -32 -13 -35 -14 -12 -3
-86 -27 -100 -32 -8 -4 -17 -7 -20 -8 -5 -2 -16 -6 -55 -21 -11 -4 -22 -8 -25
-9 -3 0 -30 -9 -60 -20 -30 -10 -57 -18 -60 -18 -3 1 -27 -8 -55 -19 -27 -11
-51 -19 -52 -19 -2 1 -5 0 -8 0 -3 -1 -9 -3 -15 -4 -5 -1 -11 -3 -12 -5 -2 -1
-10 -3 -18 -5 -8 -2 -34 -10 -57 -19 -24 -8 -43 -13 -43 -10 0 2 -13 -2 -30
-11 -16 -9 -30 -13 -30 -10 0 3 -13 -1 -29 -9 -16 -9 -31 -13 -34 -10 -3 3
-19 -2 -36 -11 -17 -8 -31 -13 -31 -11 0 3 -16 -2 -35 -10 -19 -8 -37 -14 -40
-14 -3 0 -6 0 -7 -1 -2 0 -11 -2 -20 -5 -10 -2 -26 -6 -35 -8 -10 -3 -18 -5
-18 -6 0 -1 -7 -3 -15 -5 -8 -2 -25 -6 -37 -9 -13 -3 -33 -9 -45 -12 -13 -3
-30 -7 -38 -9 -8 -2 -16 -4 -17 -5 -2 -2 -7 -4 -13 -5 -5 -1 -13 -4 -17 -5 -5
-1 -12 -3 -18 -5 -5 -1 -12 -3 -15 -4 -3 -2 -14 -4 -25 -6 -11 -2 -47 -11 -80
-20 -33 -10 -67 -19 -75 -20 -8 -2 -16 -4 -17 -5 -2 -2 -7 -4 -13 -5 -5 -1
-11 -3 -12 -5 -3 -2 -30 -8 -63 -15 -11 -2 -31 -6 -45 -10 -14 -3 -32 -8 -40
-10 -8 -2 -15 -4 -15 -5 0 -2 -38 -11 -65 -15 -14 -1 -25 -4 -25 -5 0 -1 -7
-3 -15 -5 -8 -2 -28 -6 -45 -10 -45 -9 -60 -13 -60 -16 0 -1 -9 -3 -20 -5 -11
-1 -31 -5 -45 -9 -14 -4 -34 -8 -45 -9 -11 -2 -20 -4 -20 -5 0 -3 -31 -11 -60
-15 -11 -2 -20 -4 -20 -6 0 -1 -11 -3 -25 -4 -14 -2 -35 -6 -47 -10 -13 -4
-35 -10 -50 -13 -43 -8 -58 -11 -58 -13 0 -1 -11 -4 -25 -5 -42 -6 -59 -11
-67 -19 -4 -4 -9 -562 -9 -1239 -1 -678 -3 -1232 -4 -1232 -1 0 -3 -16 -5 -35
-3 -37 -19 -120 -25 -127 -2 -2 -3 -6 -4 -10 -5 -22 -43 -113 -60 -143 -33
-59 -92 -135 -138 -179 -76 -74 -239 -172 -310 -187 -5 -1 -9 -2 -10 -4 -5 -3
-42 -11 -58 -12 -8 0 -19 -4 -25 -7 -10 -7 -14245 -5 -14295 1 -14 2 -31 7
-38 12 -7 4 -16 6 -19 3 -16 -16 -178 63 -271 131 -68 51 -173 167 -200 222
-7 14 -21 40 -32 58 -11 17 -17 32 -14 32 2 0 -1 10 -8 23 -7 12 -13 25 -14
30 -1 4 -2 8 -4 10 -1 1 -3 11 -5 22 -2 11 -6 31 -10 45 -4 14 -8 36 -10 50
-1 14 -4 25 -5 25 -1 0 -3 561 -4 1247 -1 1286 0 1267 -38 1274 -7 1 -26 5
-43 9 -16 3 -41 8 -55 10 -14 2 -27 4 -30 6 -3 1 -9 3 -15 4 -5 2 -13 4 -17 5
-5 1 -17 4 -28 5 -11 1 -21 3 -22 5 -3 2 -21 6 -58 14 -40 9 -69 16 -90 21
-11 3 -29 7 -40 10 -11 3 -28 7 -39 9 -10 2 -35 9 -55 14 -20 6 -36 8 -36 5 0
-3 -7 0 -15 7 -8 7 -15 10 -15 7 0 -3 -31 3 -70 13 -38 10 -70 16 -70 14 0 -3
-8 0 -19 5 -10 6 -33 13 -52 17 -45 8 -63 12 -66 14 -2 2 -7 4 -13 5 -5 1 -11
3 -12 5 -2 1 -10 3 -18 5 -8 2 -26 7 -40 10 -14 4 -34 8 -45 10 -11 2 -20 4
-20 5 0 1 -7 3 -15 5 -8 1 -39 10 -67 18 -29 9 -53 13 -53 10 0 -3 -6 -1 -12
5 -7 6 -16 11 -20 11 -5 1 -9 1 -10 2 -2 0 -11 2 -20 5 -28 6 -40 10 -88 24
-49 15 -63 19 -82 23 -7 1 -19 6 -25 10 -7 5 -13 6 -13 2 0 -3 -16 2 -37 10
-20 8 -38 13 -41 10 -3 -3 -10 -1 -16 4 -7 6 -23 12 -38 15 -14 2 -36 9 -47
16 -12 6 -21 8 -21 5 0 -3 -16 1 -35 9 -19 8 -35 12 -35 9 0 -3 -7 0 -15 7 -8
7 -15 9 -15 5 0 -4 -7 -2 -15 5 -8 7 -15 9 -15 5 0 -4 -7 -2 -15 5 -8 7 -15 9
-15 5 0 -4 -7 -2 -15 5 -8 7 -15 10 -15 6 0 -3 -12 -1 -27 5 -16 6 -35 12 -43
14 -8 2 -45 15 -82 28 -38 14 -68 23 -68 20 0 -3 -7 0 -15 7 -8 7 -15 9 -15 5
0 -4 -6 -3 -12 2 -11 9 -74 33 -100 39 -5 1 -10 3 -13 4 -3 1 -8 3 -12 5 -5 1
-21 7 -38 14 -16 7 -37 14 -47 16 -9 2 -30 11 -47 19 -17 9 -31 14 -31 11 0
-3 -13 1 -30 10 -16 8 -31 15 -32 14 -2 0 -14 4 -28 9 -30 12 -53 20 -60 19
-3 0 -16 6 -30 13 -14 8 -27 15 -30 15 -3 0 -15 6 -27 13 -13 7 -23 10 -23 7
0 -3 -12 3 -27 12 -15 10 -28 17 -30 15 -2 -1 -19 5 -39 13 -20 8 -42 15 -48
15 -7 0 -17 5 -23 11 -6 6 -17 12 -24 13 -8 2 -27 9 -44 16 -16 7 -32 14 -35
15 -3 0 -20 9 -37 18 -18 10 -35 17 -38 17 -12 -2 -569 273 -592 292 -7 6 -14
9 -14 7z"/>
<path d="M23652 6710 c0 -14 2 -19 5 -12 2 6 2 18 0 25 -3 6 -5 1 -5 -13z"/>
<path d="M23652 6470 c0 -14 2 -19 5 -12 2 6 2 18 0 25 -3 6 -5 1 -5 -13z"/>
<path d="M23652 6230 c0 -14 2 -19 5 -12 2 6 2 18 0 25 -3 6 -5 1 -5 -13z"/>
<path d="M23652 5990 c0 -14 2 -19 5 -12 2 6 2 18 0 25 -3 6 -5 1 -5 -13z"/>
<path d="M23652 5270 c0 -14 2 -19 5 -12 2 6 2 18 0 25 -3 6 -5 1 -5 -13z"/>
<path d="M23652 5030 c0 -14 2 -19 5 -12 2 6 2 18 0 25 -3 6 -5 1 -5 -13z"/>
<path d="M23652 4790 c0 -14 2 -19 5 -12 2 6 2 18 0 25 -3 6 -5 1 -5 -13z"/>
<path d="M23652 4550 c0 -14 2 -19 5 -12 2 6 2 18 0 25 -3 6 -5 1 -5 -13z"/>
<path d="M23652 4310 c0 -14 2 -19 5 -12 2 6 2 18 0 25 -3 6 -5 1 -5 -13z"/>
<path d="M23652 3830 c0 -14 2 -19 5 -12 2 6 2 18 0 25 -3 6 -5 1 -5 -13z"/>
<path d="M23652 3590 c0 -14 2 -19 5 -12 2 6 2 18 0 25 -3 6 -5 1 -5 -13z"/>
<path d="M23652 3190 c0 -14 2 -19 5 -12 2 6 2 18 0 25 -3 6 -5 1 -5 -13z"/>
<path d="M23652 2950 c0 -14 2 -19 5 -12 2 6 2 18 0 25 -3 6 -5 1 -5 -13z"/>
<path d="M23652 2550 c0 -14 2 -19 5 -12 2 6 2 18 0 25 -3 6 -5 1 -5 -13z"/>
<path d="M23652 2310 c0 -14 2 -19 5 -12 2 6 2 18 0 25 -3 6 -5 1 -5 -13z"/>
<path d="M23652 2030 c0 -14 2 -19 5 -12 2 6 2 18 0 25 -3 6 -5 1 -5 -13z"/>
<path d="M23652 1910 c0 -14 2 -19 5 -12 2 6 2 18 0 25 -3 6 -5 1 -5 -13z"/>
<path d="M23652 1670 c0 -14 2 -19 5 -12 2 6 2 18 0 25 -3 6 -5 1 -5 -13z"/>
<path d="M23652 1550 c0 -14 2 -19 5 -12 2 6 2 18 0 25 -3 6 -5 1 -5 -13z"/>
<path d="M23652 1430 c0 -14 2 -19 5 -12 2 6 2 18 0 25 -3 6 -5 1 -5 -13z"/>
<path d="M23652 1310 c0 -14 2 -19 5 -12 2 6 2 18 0 25 -3 6 -5 1 -5 -13z"/>
<path d="M23652 1190 c0 -14 2 -19 5 -12 2 6 2 18 0 25 -3 6 -5 1 -5 -13z"/>
<path d="M23652 1070 c0 -14 2 -19 5 -12 2 6 2 18 0 25 -3 6 -5 1 -5 -13z"/>
<path d="M23651 894 c0 -11 3 -14 6 -6 3 7 2 16 -1 19 -3 4 -6 -2 -5 -13z"/>
<path d="M23652 710 c0 -14 2 -19 5 -12 2 6 2 18 0 25 -3 6 -5 1 -5 -13z"/>
<path d="M23652 590 c0 -14 2 -19 5 -12 2 6 2 18 0 25 -3 6 -5 1 -5 -13z"/>
<path d="M23652 470 c0 -14 2 -19 5 -12 2 6 2 18 0 25 -3 6 -5 1 -5 -13z"/>
<path d="M23652 350 c0 -14 2 -19 5 -12 2 6 2 18 0 25 -3 6 -5 1 -5 -13z"/>
</g>
</svg>
